<mxfile host="app.diagrams.net" modified="2023-12-07T23:28:32.911Z" agent="Mozilla/5.0 (Windows NT 10.0; Win64; x64) AppleWebKit/537.36 (KHTML, like Gecko) Chrome/119.0.0.0 Safari/537.36 Edg/119.0.0.0" etag="vS097GCDehhdNwjAs4UH" version="22.1.7" type="device">
  <diagram name="Page-1" id="XTTtq-dg-Lj2X4ySG26T">
    <mxGraphModel dx="793" dy="358" grid="1" gridSize="10" guides="1" tooltips="1" connect="1" arrows="1" fold="1" page="1" pageScale="1" pageWidth="850" pageHeight="1100" math="0" shadow="0">
      <root>
        <mxCell id="0" />
        <mxCell id="1" parent="0" />
        <mxCell id="BMttaIWEHfVnVTvxrATZ-6" style="edgeStyle=orthogonalEdgeStyle;rounded=0;orthogonalLoop=1;jettySize=auto;html=1;entryX=0.5;entryY=0;entryDx=0;entryDy=0;" edge="1" parent="1" source="BMttaIWEHfVnVTvxrATZ-7" target="BMttaIWEHfVnVTvxrATZ-48">
          <mxGeometry relative="1" as="geometry">
            <mxPoint x="380" y="140" as="targetPoint" />
          </mxGeometry>
        </mxCell>
        <mxCell id="BMttaIWEHfVnVTvxrATZ-7" value="Start" style="rounded=1;whiteSpace=wrap;html=1;fontSize=12;glass=0;strokeWidth=1;shadow=0;" vertex="1" parent="1">
          <mxGeometry x="341.25" y="100" width="77.5" height="40" as="geometry" />
        </mxCell>
        <mxCell id="BMttaIWEHfVnVTvxrATZ-8" style="edgeStyle=orthogonalEdgeStyle;rounded=0;orthogonalLoop=1;jettySize=auto;html=1;entryX=0.5;entryY=0;entryDx=0;entryDy=0;" edge="1" parent="1" source="BMttaIWEHfVnVTvxrATZ-12" target="BMttaIWEHfVnVTvxrATZ-17">
          <mxGeometry relative="1" as="geometry" />
        </mxCell>
        <mxCell id="BMttaIWEHfVnVTvxrATZ-9" value="No" style="edgeLabel;html=1;align=center;verticalAlign=middle;resizable=0;points=[];" vertex="1" connectable="0" parent="BMttaIWEHfVnVTvxrATZ-8">
          <mxGeometry x="-0.225" y="-1" relative="1" as="geometry">
            <mxPoint x="11" y="-5" as="offset" />
          </mxGeometry>
        </mxCell>
        <mxCell id="BMttaIWEHfVnVTvxrATZ-10" style="edgeStyle=orthogonalEdgeStyle;rounded=0;orthogonalLoop=1;jettySize=auto;html=1;entryX=0;entryY=0.5;entryDx=0;entryDy=0;" edge="1" parent="1" source="BMttaIWEHfVnVTvxrATZ-12" target="BMttaIWEHfVnVTvxrATZ-31">
          <mxGeometry relative="1" as="geometry" />
        </mxCell>
        <mxCell id="BMttaIWEHfVnVTvxrATZ-11" value="Yes" style="edgeLabel;html=1;align=center;verticalAlign=middle;resizable=0;points=[];" vertex="1" connectable="0" parent="BMttaIWEHfVnVTvxrATZ-10">
          <mxGeometry x="0.0133" relative="1" as="geometry">
            <mxPoint x="-5" y="-11" as="offset" />
          </mxGeometry>
        </mxCell>
        <mxCell id="BMttaIWEHfVnVTvxrATZ-12" value="Obstacle Detection?" style="rhombus;whiteSpace=wrap;html=1;" vertex="1" parent="1">
          <mxGeometry x="310" y="226" width="140" height="70" as="geometry" />
        </mxCell>
        <mxCell id="BMttaIWEHfVnVTvxrATZ-13" style="edgeStyle=orthogonalEdgeStyle;rounded=0;orthogonalLoop=1;jettySize=auto;html=1;entryX=0.5;entryY=0;entryDx=0;entryDy=0;" edge="1" parent="1" source="BMttaIWEHfVnVTvxrATZ-17" target="BMttaIWEHfVnVTvxrATZ-21">
          <mxGeometry relative="1" as="geometry" />
        </mxCell>
        <mxCell id="BMttaIWEHfVnVTvxrATZ-14" value="No" style="edgeLabel;html=1;align=center;verticalAlign=middle;resizable=0;points=[];" vertex="1" connectable="0" parent="BMttaIWEHfVnVTvxrATZ-13">
          <mxGeometry x="-0.1245" y="2" relative="1" as="geometry">
            <mxPoint x="12" y="-6" as="offset" />
          </mxGeometry>
        </mxCell>
        <mxCell id="BMttaIWEHfVnVTvxrATZ-15" style="edgeStyle=orthogonalEdgeStyle;rounded=0;orthogonalLoop=1;jettySize=auto;html=1;entryX=0;entryY=0.5;entryDx=0;entryDy=0;" edge="1" parent="1" source="BMttaIWEHfVnVTvxrATZ-17" target="BMttaIWEHfVnVTvxrATZ-33">
          <mxGeometry relative="1" as="geometry" />
        </mxCell>
        <mxCell id="BMttaIWEHfVnVTvxrATZ-16" value="Yes" style="edgeLabel;html=1;align=center;verticalAlign=middle;resizable=0;points=[];" vertex="1" connectable="0" parent="BMttaIWEHfVnVTvxrATZ-15">
          <mxGeometry x="-0.42" y="6" relative="1" as="geometry">
            <mxPoint x="-2" y="-5" as="offset" />
          </mxGeometry>
        </mxCell>
        <mxCell id="BMttaIWEHfVnVTvxrATZ-17" value="Vision Detection?" style="rhombus;whiteSpace=wrap;html=1;" vertex="1" parent="1">
          <mxGeometry x="310" y="326" width="140" height="70" as="geometry" />
        </mxCell>
        <mxCell id="BMttaIWEHfVnVTvxrATZ-20" value="Yes" style="edgeStyle=orthogonalEdgeStyle;rounded=0;orthogonalLoop=1;jettySize=auto;html=1;entryX=0;entryY=0.5;entryDx=0;entryDy=0;" edge="1" parent="1" source="BMttaIWEHfVnVTvxrATZ-21" target="BMttaIWEHfVnVTvxrATZ-35">
          <mxGeometry x="-0.5178" y="14" relative="1" as="geometry">
            <mxPoint as="offset" />
          </mxGeometry>
        </mxCell>
        <mxCell id="BMttaIWEHfVnVTvxrATZ-63" style="edgeStyle=orthogonalEdgeStyle;rounded=0;orthogonalLoop=1;jettySize=auto;html=1;entryX=0;entryY=0.5;entryDx=0;entryDy=0;exitX=0;exitY=0.5;exitDx=0;exitDy=0;" edge="1" parent="1" source="BMttaIWEHfVnVTvxrATZ-21" target="BMttaIWEHfVnVTvxrATZ-48">
          <mxGeometry relative="1" as="geometry">
            <Array as="points">
              <mxPoint x="280" y="455" />
              <mxPoint x="280" y="180" />
            </Array>
          </mxGeometry>
        </mxCell>
        <mxCell id="BMttaIWEHfVnVTvxrATZ-65" value="No" style="edgeLabel;html=1;align=center;verticalAlign=middle;resizable=0;points=[];" vertex="1" connectable="0" parent="BMttaIWEHfVnVTvxrATZ-63">
          <mxGeometry x="-0.6535" y="1" relative="1" as="geometry">
            <mxPoint x="11" y="17" as="offset" />
          </mxGeometry>
        </mxCell>
        <mxCell id="BMttaIWEHfVnVTvxrATZ-21" value="Plume Detection?" style="rhombus;whiteSpace=wrap;html=1;" vertex="1" parent="1">
          <mxGeometry x="310" y="420" width="140" height="70" as="geometry" />
        </mxCell>
        <mxCell id="BMttaIWEHfVnVTvxrATZ-53" style="edgeStyle=orthogonalEdgeStyle;rounded=0;orthogonalLoop=1;jettySize=auto;html=1;entryX=0.5;entryY=0;entryDx=0;entryDy=0;" edge="1" parent="1" source="BMttaIWEHfVnVTvxrATZ-26" target="BMttaIWEHfVnVTvxrATZ-27">
          <mxGeometry relative="1" as="geometry">
            <mxPoint x="700" y="500" as="targetPoint" />
          </mxGeometry>
        </mxCell>
        <mxCell id="BMttaIWEHfVnVTvxrATZ-62" value="Yes" style="edgeLabel;html=1;align=center;verticalAlign=middle;resizable=0;points=[];" vertex="1" connectable="0" parent="BMttaIWEHfVnVTvxrATZ-53">
          <mxGeometry x="-0.3435" relative="1" as="geometry">
            <mxPoint x="10" y="-13" as="offset" />
          </mxGeometry>
        </mxCell>
        <mxCell id="BMttaIWEHfVnVTvxrATZ-82" style="edgeStyle=orthogonalEdgeStyle;rounded=0;orthogonalLoop=1;jettySize=auto;html=1;exitX=1;exitY=0.5;exitDx=0;exitDy=0;entryX=1;entryY=0.5;entryDx=0;entryDy=0;" edge="1" parent="1" source="BMttaIWEHfVnVTvxrATZ-26" target="BMttaIWEHfVnVTvxrATZ-48">
          <mxGeometry relative="1" as="geometry">
            <Array as="points">
              <mxPoint x="610" y="550" />
              <mxPoint x="610" y="180" />
            </Array>
          </mxGeometry>
        </mxCell>
        <mxCell id="BMttaIWEHfVnVTvxrATZ-83" value="No" style="edgeLabel;html=1;align=center;verticalAlign=middle;resizable=0;points=[];" vertex="1" connectable="0" parent="BMttaIWEHfVnVTvxrATZ-82">
          <mxGeometry x="-0.9232" relative="1" as="geometry">
            <mxPoint x="-12" y="-10" as="offset" />
          </mxGeometry>
        </mxCell>
        <mxCell id="BMttaIWEHfVnVTvxrATZ-26" value="Source Conformation?" style="rhombus;whiteSpace=wrap;html=1;" vertex="1" parent="1">
          <mxGeometry x="310" y="515" width="140" height="70" as="geometry" />
        </mxCell>
        <mxCell id="BMttaIWEHfVnVTvxrATZ-58" style="edgeStyle=orthogonalEdgeStyle;rounded=0;orthogonalLoop=1;jettySize=auto;html=1;exitX=0.5;exitY=0;exitDx=0;exitDy=0;" edge="1" parent="1" source="BMttaIWEHfVnVTvxrATZ-31">
          <mxGeometry relative="1" as="geometry">
            <mxPoint x="380" y="210" as="targetPoint" />
            <Array as="points">
              <mxPoint x="536" y="210" />
            </Array>
          </mxGeometry>
        </mxCell>
        <mxCell id="BMttaIWEHfVnVTvxrATZ-31" value="Obstacle Avoidance" style="rounded=0;whiteSpace=wrap;html=1;" vertex="1" parent="1">
          <mxGeometry x="488" y="241" width="96" height="40" as="geometry" />
        </mxCell>
        <mxCell id="BMttaIWEHfVnVTvxrATZ-81" style="edgeStyle=orthogonalEdgeStyle;rounded=0;orthogonalLoop=1;jettySize=auto;html=1;exitX=1;exitY=0.5;exitDx=0;exitDy=0;entryX=0.5;entryY=0;entryDx=0;entryDy=0;" edge="1" parent="1" source="BMttaIWEHfVnVTvxrATZ-33" target="BMttaIWEHfVnVTvxrATZ-26">
          <mxGeometry relative="1" as="geometry">
            <Array as="points">
              <mxPoint x="600" y="361" />
              <mxPoint x="600" y="500" />
              <mxPoint x="380" y="500" />
            </Array>
          </mxGeometry>
        </mxCell>
        <mxCell id="BMttaIWEHfVnVTvxrATZ-33" value="Vision-based Plume-trace" style="rounded=0;whiteSpace=wrap;html=1;" vertex="1" parent="1">
          <mxGeometry x="488" y="341" width="96" height="40" as="geometry" />
        </mxCell>
        <mxCell id="BMttaIWEHfVnVTvxrATZ-51" style="edgeStyle=orthogonalEdgeStyle;rounded=0;orthogonalLoop=1;jettySize=auto;html=1;entryX=0.5;entryY=0;entryDx=0;entryDy=0;" edge="1" parent="1" source="BMttaIWEHfVnVTvxrATZ-35" target="BMttaIWEHfVnVTvxrATZ-26">
          <mxGeometry relative="1" as="geometry">
            <Array as="points">
              <mxPoint x="600" y="455" />
              <mxPoint x="600" y="500" />
              <mxPoint x="380" y="500" />
            </Array>
          </mxGeometry>
        </mxCell>
        <mxCell id="BMttaIWEHfVnVTvxrATZ-35" value="Olfactory-based Plume-trace" style="rounded=0;whiteSpace=wrap;html=1;" vertex="1" parent="1">
          <mxGeometry x="488" y="435" width="96" height="40" as="geometry" />
        </mxCell>
        <mxCell id="BMttaIWEHfVnVTvxrATZ-36" value="" style="endArrow=none;dashed=1;html=1;rounded=0;" edge="1" parent="1">
          <mxGeometry width="50" height="50" relative="1" as="geometry">
            <mxPoint x="160" y="260" as="sourcePoint" />
            <mxPoint x="270" y="260" as="targetPoint" />
          </mxGeometry>
        </mxCell>
        <mxCell id="BMttaIWEHfVnVTvxrATZ-37" value="" style="endArrow=none;dashed=1;html=1;rounded=0;" edge="1" parent="1">
          <mxGeometry width="50" height="50" relative="1" as="geometry">
            <mxPoint x="160" y="360.62" as="sourcePoint" />
            <mxPoint x="270" y="360" as="targetPoint" />
          </mxGeometry>
        </mxCell>
        <mxCell id="BMttaIWEHfVnVTvxrATZ-38" value="" style="endArrow=none;dashed=1;html=1;rounded=0;" edge="1" parent="1">
          <mxGeometry width="50" height="50" relative="1" as="geometry">
            <mxPoint x="160" y="454.62" as="sourcePoint" />
            <mxPoint x="270" y="455" as="targetPoint" />
          </mxGeometry>
        </mxCell>
        <mxCell id="BMttaIWEHfVnVTvxrATZ-39" value="" style="endArrow=none;dashed=1;html=1;rounded=0;" edge="1" parent="1">
          <mxGeometry width="50" height="50" relative="1" as="geometry">
            <mxPoint x="160" y="550" as="sourcePoint" />
            <mxPoint x="270" y="550" as="targetPoint" />
          </mxGeometry>
        </mxCell>
        <mxCell id="BMttaIWEHfVnVTvxrATZ-40" value="" style="endArrow=none;dashed=1;html=1;rounded=0;" edge="1" parent="1">
          <mxGeometry width="50" height="50" relative="1" as="geometry">
            <mxPoint x="160" y="160" as="sourcePoint" />
            <mxPoint x="270" y="160" as="targetPoint" />
          </mxGeometry>
        </mxCell>
        <mxCell id="BMttaIWEHfVnVTvxrATZ-41" value="Phase 1:&lt;br&gt;Plume Finding" style="text;html=1;strokeColor=none;fillColor=none;align=center;verticalAlign=middle;whiteSpace=wrap;rounded=0;" vertex="1" parent="1">
          <mxGeometry x="160" y="196" width="100" height="30" as="geometry" />
        </mxCell>
        <mxCell id="BMttaIWEHfVnVTvxrATZ-42" value="Phase 2:&lt;br&gt;Obstacle Avoidance" style="text;html=1;strokeColor=none;fillColor=none;align=center;verticalAlign=middle;whiteSpace=wrap;rounded=0;" vertex="1" parent="1">
          <mxGeometry x="160" y="296" width="100" height="30" as="geometry" />
        </mxCell>
        <mxCell id="BMttaIWEHfVnVTvxrATZ-43" value="Phase 3:&lt;br&gt;Vision-based Plume-tracing" style="text;html=1;strokeColor=none;fillColor=none;align=center;verticalAlign=middle;whiteSpace=wrap;rounded=0;" vertex="1" parent="1">
          <mxGeometry x="160" y="390" width="100" height="30" as="geometry" />
        </mxCell>
        <mxCell id="BMttaIWEHfVnVTvxrATZ-44" value="Phase 4:&lt;br&gt;Olfaction-based Plume-tracing" style="text;html=1;strokeColor=none;fillColor=none;align=center;verticalAlign=middle;whiteSpace=wrap;rounded=0;" vertex="1" parent="1">
          <mxGeometry x="160" y="485" width="100" height="30" as="geometry" />
        </mxCell>
        <mxCell id="BMttaIWEHfVnVTvxrATZ-45" value="Phase 5:&lt;br&gt;Source Declaration" style="text;html=1;strokeColor=none;fillColor=none;align=center;verticalAlign=middle;whiteSpace=wrap;rounded=0;" vertex="1" parent="1">
          <mxGeometry x="160" y="560" width="100" height="30" as="geometry" />
        </mxCell>
        <mxCell id="BMttaIWEHfVnVTvxrATZ-64" style="edgeStyle=orthogonalEdgeStyle;rounded=0;orthogonalLoop=1;jettySize=auto;html=1;entryX=0.5;entryY=0;entryDx=0;entryDy=0;" edge="1" parent="1" source="BMttaIWEHfVnVTvxrATZ-48" target="BMttaIWEHfVnVTvxrATZ-12">
          <mxGeometry relative="1" as="geometry" />
        </mxCell>
        <mxCell id="BMttaIWEHfVnVTvxrATZ-48" value="Plume-find" style="rounded=0;whiteSpace=wrap;html=1;" vertex="1" parent="1">
          <mxGeometry x="332" y="160" width="96" height="40" as="geometry" />
        </mxCell>
        <mxCell id="BMttaIWEHfVnVTvxrATZ-27" value="End" style="rounded=1;whiteSpace=wrap;html=1;fontSize=12;glass=0;strokeWidth=1;shadow=0;" vertex="1" parent="1">
          <mxGeometry x="341.25" y="610" width="77.5" height="40" as="geometry" />
        </mxCell>
      </root>
    </mxGraphModel>
  </diagram>
</mxfile>
